<svg height="483" viewBox="14.18 193.35 680.31 322.15" width="2500" xmlns="http://www.w3.org/2000/svg"><path d="m356.15 193.39c3.9.93 7.87 1.58 11.7 2.81 12.08 3.89 23.52 9.26 34.7 15.19 2.77 1.47 5.52 2.96 8.5 4.56-.22-2.16-1-3.9-1.06-5.8-.16-4.81 2.34-8.24 7.09-8.56 9.27-.62 18.58-.69 27.85.03 4.57.36 6.86 3.29 6.95 7.95.09 4.76-1.63 9.18-2.5 13.75-.89 4.67-1.55 9.36-2.06 14.08-.13 1.25.24 2 1.3 2.79 9.35 7.03 18.81 13.92 27.63 21.63 3.77 3.29 7.15 6.93 9.83 11.18 6.82 10.8 3.6 20.51-8.33 25.23-8.51 3.37-17.37 3.43-26.3 2.84-4.54-.3-4.43-.39-3.9 4.27 1.66 14.66 7.78 27.41 16.7 38.92 6.11 7.89 10.32 16.52 10.69 26.62.54 14.94-6.08 26.63-17.2 36-10.45 8.81-22.75 13.33-36.22 15.07-10.3 1.33-20.47.7-30.6-1.39-1.04-.21-2.03-.28-3.1.02-12.89 3.63-26.05 5.04-39.41 4.56-10.35-.37-20.59-1.67-30.57-4.6-2.09-.61-4.02.32-5.99.65-19.17 3.25-37.66 1.58-54.82-8.14-12.85-7.28-22.22-17.63-25.31-32.54-2.8-13.51 1.41-25.31 9.67-35.92 7.27-9.33 12.71-19.56 15.52-31.11.88-3.6 1.37-7.25 1.7-10.94.13-1.45-.3-1.76-1.73-1.66-6.1.44-12.21.8-18.32-.05-5.81-.8-11.38-2.27-16.2-5.82-5.7-4.19-7.56-10.45-5.04-17.05 2.38-6.23 6.61-11.14 11.53-15.45 15.89-13.89 32.95-26.2 50.82-37.41 15.34-9.63 31.14-18.41 47.98-25.17 6.92-2.78 13.94-5.28 21.39-6.26.1-.01.18-.21.27-.32 2.3.04 4.57.04 6.84.04zm-105.38 104.3c9.98-.61 20.68-1.19 31.38-1.94 19.96-1.39 39.94-2.47 59.94-3.02 17.46-.48 34.9.35 52.33 1.24 19 .97 37.98 2.3 56.97 3.53 6.75.44 13.41.33 19.8-2.46 7.66-3.34 11.56-10.11 9.6-17.56-1.27-4.81-4.5-8.46-7.96-11.89-11.47-11.37-24.47-20.81-37.72-29.92-11.37-7.82-23.12-15.08-35.31-21.58-9.67-5.15-19.46-10.01-29.88-13.49-5.81-1.94-11.69-3.73-17.89-3.46-6.54.29-12.75 2.19-18.86 4.44-8.8 3.25-17.18 7.38-25.48 11.72-12.44 6.51-24.34 13.92-35.97 21.76-10.13 6.84-19.99 14.05-29.29 21.99-5.23 4.46-10.52 8.89-14.51 14.57-6.37 9.06-3.19 19.27 7.09 23.47 4.85 2 9.86 2.7 15.76 2.6zm59.17 120.13c-.65-.36-1.09-.65-1.56-.85-5.97-2.53-11.2-6.05-15.57-10.93-5.84-6.53-3.92-15.24 4.22-18.29 6.77-2.53 13.53-5.1 20.36-7.48 1.97-.69 2.33-1.71 1.99-3.55-1.77-9.39-1.78-18.8-.46-28.26 1.63-11.71 4.77-22.77 12.56-32.07 5.18-6.18 11.62-9.97 19.74-10.42 13.56-.76 22.23 6.89 28.3 17.73 5.36 9.58 7.55 20.28 8.21 31.25.46 7.57.1 15.08-1.15 22.55-.28 1.65.26 2.56 1.8 3.02 1.72.51 3.46 1 5.16 1.6 5.04 1.79 10.08 3.56 15.07 5.49 3.85 1.49 8.61 4.96 7.84 11.06-.81 6.5-5.57 10.21-10.21 13.81-2.39 1.86-5.38 2.95-8.08 4.4-.49.26-1.36.31-1.19 1.12.18.84.94 1.06 1.75 1.14 7.62.77 15.22.78 22.79-.45 11.98-1.94 22.74-6.67 31.5-15.08 7.99-7.66 13.42-16.91 14.95-28.17 1.19-8.82-.09-17.1-4.71-24.75-5.38-8.91-10.77-17.81-14.13-27.74-2.2-6.49-4.14-13.05-4.54-19.94-.11-2-1.33-2.48-3.02-2.57-5.58-.29-11.15-.64-16.73-.93-12.43-.64-24.86-1.33-37.29-1.88-14.4-.64-28.78-1.57-43.22-1.03-13.65.51-27.29 1.12-40.93 1.76-12.96.61-25.89 1.82-38.87 2.01-1.8.03-2.91.57-3.1 2.46-.5 5.17-1.49 10.22-3.03 15.2-3.45 11.17-8.46 21.57-14.96 31.26-3 4.48-4.87 9.48-5.52 14.7-1.54 12.31 1.84 23.46 9.39 33.26 7.08 9.19 16.32 15.43 27.31 19.1 9.52 3.18 19.35 3.76 29.25 3.11 1.91-.14 4.31.54 6.08-1.64zm72.23-54.98c-.04-2.16-.11-6.01-.62-9.83-1.34-10.13-3.91-19.83-10.26-28.12-4.52-5.89-10.2-9.85-17.92-9.99-8.2-.14-14.25 3.92-18.94 10.23-7 9.42-9.59 20.39-10.43 31.82-1.04 14.09.97 27.84 5.26 41.29.56 1.74 1.22 2.18 2.99 1.92 13.76-2.05 27.53-2.16 41.29-.01 1.85.29 2.63-.2 3.19-2 3.4-10.96 5.4-22.13 5.44-35.31zm-72.3 52.78c-2.12-4.16-1.66-5.9 1.71-8.49 3.92-3.02 8.6-4.23 13.22-5.49 4.01-1.1 4-.96 2.73-4.98-5.13-16.27-6.71-32.85-3.59-49.67 1.73-9.34 4.89-18.18 11.51-25.37 6.22-6.75 13.66-9.97 22.9-7.74 7.3 1.76 12.06 6.84 15.93 12.81 6.11 9.41 8.42 20.08 9.12 31.05.89 14.04-1.27 27.76-5.64 41.13-.45 1.37-.19 1.92 1.18 2.19 3.26.64 6.4 1.72 9.54 2.8 7.13 2.46 9.16 5.08 8.4 11.02.48.26.87-.01 1.26-.22 5.27-2.73 10.08-6.18 13.16-11.28 3.13-5.19 3.41-11.9-4.78-15.03-6.75-2.58-13.53-5.08-20.34-7.52-1.09-.39-1.28-.68-1.08-1.86.59-3.48 1.18-6.99 1.31-10.51.3-7.9.27-15.81-1.26-23.64-1.96-10.01-5.15-19.42-11.97-27.33-8.98-10.39-23.07-12.25-34.32-5.3-6.45 3.98-10.42 10.14-13.42 16.91-3.23 7.28-4.88 15-5.65 22.9-.83 8.52-.6 17.03.84 25.46.36 2.1-.02 2.99-1.98 3.69-6.52 2.33-12.98 4.81-19.46 7.24-6.97 2.6-7.85 9.35-4.8 14.63 3.46 6 8.84 9.66 15.48 12.6zm44.16 7.66c6.73.14 13.96-.41 21.11-1.56 6.17-.99 12.34-2.19 17.8-5.55 4.26-2.62 4.24-6.13-.02-8.76-.32-.2-.67-.34-1.01-.51-6.63-3.4-13.82-4.55-21.11-5.37-15.77-1.77-31.46-1.48-47.01 1.86-4.2.9-8.34 2.16-11.81 4.88-3 2.35-2.96 4.85.04 7.25 2.66 2.12 5.84 3.13 9.02 4.03 10.61 3.01 21.49 3.8 32.99 3.73zm60.13-212.24c.66 6.01.31 7.33 5.53 10.21 7.82 4.33 15.16 9.47 22.58 14.47 1.85 1.24 2.28 1.13 2.42-1.12.45-7.07 1.6-14.02 2.94-20.96 1.05-5.47-1.33-8.66-6.51-8.77-7.02-.14-14.05-.1-21.07 0-3.46.05-6.28 1.48-5.89 6.17z"/><path d="m250.77 297.69c-5.9.1-10.91-.6-15.76-2.58-10.28-4.2-13.46-14.4-7.09-23.47 3.99-5.67 9.28-10.11 14.51-14.57 9.3-7.94 19.16-15.15 29.29-21.99 11.63-7.84 23.52-15.25 35.97-21.76 8.3-4.34 16.69-8.47 25.48-11.72 6.11-2.25 12.32-4.16 18.86-4.44 6.2-.27 12.08 1.52 17.89 3.46 10.42 3.48 20.21 8.34 29.88 13.49 12.2 6.5 23.94 13.76 35.31 21.58 13.24 9.11 26.25 18.55 37.72 29.92 3.46 3.43 6.69 7.08 7.96 11.89 1.96 7.45-1.94 14.22-9.6 17.56-6.39 2.78-13.05 2.9-19.8 2.46-18.99-1.24-37.97-2.56-56.97-3.53-17.44-.89-34.87-1.72-52.33-1.24-20 .55-39.98 1.63-59.94 3.02-10.69.72-21.4 1.3-31.38 1.92z" fill="#f7a600"/><path d="m309.94 417.82c-1.78 2.18-4.18 1.51-6.09 1.63-9.9.65-19.73.07-29.25-3.11-10.98-3.67-20.22-9.91-27.31-19.1-7.55-9.8-10.93-20.95-9.39-33.26.65-5.22 2.52-10.22 5.52-14.7 6.5-9.69 11.5-20.09 14.96-31.26a75.948 75.948 0 0 0 3.03-15.2c.18-1.89 1.29-2.44 3.1-2.46 12.98-.18 25.91-1.4 38.87-2.01 13.64-.64 27.28-1.25 40.93-1.76 14.44-.54 28.83.39 43.22 1.03 12.43.55 24.86 1.24 37.29 1.88 5.58.29 11.15.64 16.73.93 1.7.09 2.91.57 3.02 2.57.4 6.9 2.34 13.46 4.54 19.94 3.37 9.92 8.75 18.83 14.13 27.74 4.62 7.65 5.9 15.93 4.71 24.75-1.52 11.26-6.96 20.51-14.95 28.17-8.76 8.4-19.53 13.13-31.5 15.08-7.58 1.23-15.18 1.22-22.79.45-.81-.08-1.57-.31-1.75-1.14-.17-.81.7-.85 1.19-1.12 2.71-1.46 5.69-2.55 8.08-4.4 4.64-3.6 9.4-7.31 10.21-13.81.76-6.1-3.99-9.56-7.84-11.06-4.98-1.93-10.03-3.7-15.07-5.49-1.69-.6-3.43-1.09-5.16-1.6-1.54-.46-2.08-1.38-1.8-3.02 1.26-7.47 1.61-14.98 1.15-22.55-.66-10.97-2.84-21.66-8.21-31.25-6.07-10.84-14.74-18.49-28.3-17.73-8.13.45-14.56 4.24-19.74 10.42-7.79 9.29-10.94 20.36-12.56 32.07-1.32 9.46-1.31 18.87.46 28.26.35 1.84-.02 2.86-1.99 3.55-6.83 2.38-13.59 4.95-20.36 7.48-8.15 3.05-10.06 11.76-4.22 18.29 4.37 4.88 9.6 8.4 15.57 10.93.49.21.92.5 1.57.86zm109.48-100.28v.01c-4.69 0-9.38.19-14.05-.05-5.31-.27-10.04 3.88-9.85 9.65.2 6.34-.06 12.68-.07 19.03-.01 4.98 3.84 9.42 8.5 9.47 10.2.12 20.4.14 30.6-.01 5.01-.07 8.67-4.18 8.67-9.19 0-6.5-.12-13 .03-19.49.11-4.77-3.63-9.64-9.32-9.46-4.84.16-9.68.04-14.51.04zm-132.69 38.17c4.83 0 9.67.06 14.5-.02 4.94-.08 8.98-3.84 9.07-8.58.12-7.02.14-14.05.01-21.07-.08-4.52-4.18-8.45-8.7-8.47-9.97-.05-19.94-.06-29.92.02-5.41.04-8.88 3.52-8.97 8.93-.11 6.42.2 12.85-.14 19.25-.3 5.68 4.2 10.1 10.08 9.96 4.7-.11 9.39-.02 14.07-.02z" fill="#e30613"/><path d="m382.17 362.84c-.05 13.18-2.05 24.34-5.45 35.29-.56 1.8-1.34 2.29-3.19 2-13.76-2.15-27.53-2.03-41.29.01-1.77.26-2.43-.18-2.99-1.92-4.29-13.45-6.3-27.2-5.26-41.29.84-11.42 3.43-22.4 10.43-31.82 4.69-6.31 10.74-10.37 18.94-10.23 7.73.13 13.41 4.09 17.92 9.99 6.35 8.29 8.92 17.99 10.26 28.12.52 3.85.59 7.7.63 9.85zm-12.01 6.22c.04 2.39 1.8 4.11 4.15 4.06 2.27-.05 4.07-1.98 3.99-4.28-.07-2.31-1.95-4.11-4.22-4.07-2.33.06-3.96 1.84-3.92 4.29z" fill="#f7a600"/><path d="m309.87 415.62c-6.64-2.94-12.02-6.59-15.49-12.6-3.05-5.29-2.17-12.03 4.8-14.63 6.48-2.42 12.95-4.9 19.46-7.24 1.96-.7 2.34-1.58 1.98-3.69-1.45-8.43-1.68-16.94-.84-25.46.77-7.9 2.42-15.62 5.65-22.9 3-6.77 6.97-12.93 13.42-16.91 11.26-6.94 25.34-5.09 34.32 5.3 6.83 7.9 10.01 17.31 11.97 27.33 1.53 7.83 1.56 15.73 1.26 23.64-.13 3.52-.72 7.03-1.31 10.51-.2 1.17-.01 1.46 1.08 1.86 6.8 2.44 13.59 4.94 20.34 7.52 8.2 3.13 7.92 9.84 4.78 15.03-3.08 5.1-7.88 8.55-13.16 11.28-.39.2-.79.47-1.26.22.77-5.94-1.26-8.56-8.4-11.02-3.14-1.08-6.27-2.17-9.54-2.8-1.38-.27-1.63-.81-1.18-2.19 4.37-13.36 6.53-27.08 5.64-41.13-.7-10.98-3.01-21.64-9.12-31.05-3.87-5.97-8.63-11.05-15.93-12.81-9.24-2.23-16.68.99-22.9 7.74-6.63 7.19-9.78 16.04-11.51 25.37-3.12 16.83-1.53 33.4 3.59 49.67 1.26 4.02 1.28 3.88-2.73 4.98-4.63 1.27-9.3 2.47-13.22 5.49-3.36 2.59-3.82 4.33-1.7 8.49z" fill="#2581c4"/><path d="m354.03 423.28c-11.5.07-22.38-.72-32.99-3.73-3.18-.9-6.36-1.91-9.02-4.03-3-2.4-3.04-4.89-.04-7.25 3.47-2.73 7.61-3.98 11.81-4.88 15.55-3.33 31.24-3.63 47.01-1.86 7.29.82 14.48 1.97 21.11 5.37.34.17.69.32 1.01.51 4.26 2.64 4.27 6.15.02 8.76-5.46 3.36-11.63 4.56-17.8 5.55-7.15 1.14-14.37 1.7-21.11 1.56z" fill="#f7a600"/><path d="m414.16 211.04c-.39-4.69 2.43-6.12 5.89-6.17 7.02-.11 14.05-.15 21.07 0 5.18.1 7.56 3.3 6.51 8.77-1.34 6.94-2.49 13.9-2.94 20.96-.14 2.25-.58 2.37-2.42 1.12-7.42-5-14.76-10.14-22.58-14.47-5.22-2.89-4.87-4.2-5.53-10.21zm113.35 249.76c-1.69-1.6-3.66-2.09-5.84-1.27-2.15.82-3.09 2.49-3.09 4.77.02 7.63.84 15.22 1.1 22.83.16 4.6.43 9.24-1.32 13.63-1.97 4.93-6.26 5.73-9.86 1.92-.78-.82-1.49-1.7-2.15-2.62-3.88-5.41-6.9-11.32-10.07-17.15-3.83-7.02-7.61-14.1-13.23-19.89-6.06-6.25-15.6-5.54-20.79 1.49-3.41 4.62-4.17 10.11-4.53 15.65-.58 8.83.11 17.66.1 26.49 0 3.32.11 6.44 3.09 8.61h4.53c2.18-1.76 2.89-4 2.8-6.83-.27-8.37-1.09-16.72-1-25.1.03-3.1.2-6.18 1.11-9.17.61-2.01 1.66-3.76 3.58-4.73 2.43-1.23 4.86-.4 6.91 2.13 4.41 5.43 7.39 11.71 10.63 17.83 4.14 7.8 8.39 15.51 14.68 21.87 1.78 1.8 3.95 2.94 6.2 4h6.35c1.7-1.46 4.04-1.66 5.78-3.17 4.66-4.06 5.9-9.54 6.5-15.22 1.16-10.86-.06-21.73-.09-32.59-.02-1.3-.39-2.53-1.39-3.48zm-444.15 14.96c-3.39-5.17-8.12-8.67-13.65-11.1-12.62-5.56-25.94-6.48-39.45-5.33-5.68.48-11.65.6-16.08 5.17v3.17c1.73 1.56 3.66 2.11 5.99 1.49 10.53-2.79 21.13-3.16 31.84-1.03 6.79 1.35 12.99 3.81 18.24 8.46 6.19 5.49 7.29 12.59 2.81 19.45-2.31 3.53-5.69 5.8-9.54 7.36-10.16 4.15-20.69 4.4-31.39 2.93-1.42-.2-1.64-.8-1.63-2.05.05-7.86.02-15.71.02-23.57 0-2.11-.57-3.91-2.7-4.79-3.25-1.34-6.37.7-6.4 4.31-.06 8.69-.03 17.38 0 26.06.01 3.88 1.74 6.23 5.5 7.28 3.5.97 7.09 1.45 10.74 1.31.03.13.07.26.12.39h12.7c2.06-.45 4.11-.98 6.19-1.34 7.67-1.33 14.95-3.61 21.13-8.57 8.06-6.49 12.83-18.52 5.56-29.6zm72.06 4.02c-4.92-6.7-10.04-13.22-17.15-17.82-6.67-4.31-12.96-3.93-19.25.87-6.37 4.86-11.43 10.9-16.04 17.37a171.303 171.303 0 0 0 -15.32 26.08c-1.76 3.71-1.19 5.88 2.01 8.17.28.2.47.55.7.83h3.17c1.41-.98 2.73-1.99 3.48-3.66 3.59-8 7.93-15.59 12.68-22.94 3.98-6.15 8.19-12.13 13.94-16.83 3.7-3.02 6.75-3.2 10.74-.61 2.44 1.58 4.43 3.66 6.25 5.87 7.71 9.36 13.78 19.75 19.19 30.56 1.35 2.7 2.26 5.73 4.93 7.6h3.63c.23-.29.41-.64.68-.87 3.2-2.61 3.76-4.66 2.01-8.22-4.53-9.2-9.57-18.11-15.65-26.4zm537.48 25.26c-2.79-5.77-5.91-11.36-9.33-16.77-5.62-8.87-11.71-17.36-19.85-24.18-7.27-6.1-13.73-6.75-21.28-1.94-2.17 1.38-4.09 3.1-5.91 4.9-11.1 11.04-18.98 24.28-25.9 38.15-2.6 5.2-2 6.99 2.68 10.07h2.27c2.1-.9 3.31-2.5 4.31-4.57 5.8-11.96 12.24-23.54 20.93-33.71 2.16-2.53 4.48-4.9 7.41-6.56 2.43-1.37 4.9-1.48 7.29.06 4.62 2.98 8.15 7.04 11.37 11.43 5.27 7.19 9.69 14.89 13.9 22.72 1.96 3.65 3.01 7.87 6.44 10.63h3.18c1.53-1.36 3.65-2.19 4.08-4.53v-3.63c-1.01-.32-1.21-1.3-1.59-2.07zm-85.9-27.2c-3.71-7.16-9.93-11.48-17.23-14.18-14.74-5.45-29.91-5.93-45.25-3.16-2.06.37-4.18.82-5.89 2.19-1.42 1.13-2.54 2.6-1.84 4.5.74 2.01 2.65 2.59 4.5 2.17 4.48-1.01 9.01-1.71 13.52-2.54 3.76-.01 7.53-.01 11.29-.02 1.85.3 3.71.63 5.57.9 7.52 1.09 14.49 3.41 20.43 8.39 5.42 4.55 7.33 9.82 5.28 16.01-1.98 6-6.58 9.45-12.19 11.63-9.82 3.82-20 4.06-30.32 2.69-1.71-.23-1.97-1.01-1.96-2.51.06-7.7.03-15.41.02-23.11 0-2.17-.54-4.07-2.83-4.9-3.36-1.22-6.22.79-6.24 4.51-.05 8.61-.04 17.22-.01 25.83.01 4.13 1.79 6.56 5.79 7.49 3.45.8 6.97 1.36 10.54 1.15.03.13.05.27.06.4h9.07a.89.89 0 0 1 .12-.39c2.13.19 4.22-.24 6.31-.5 8.79-1.07 17.18-3.32 24.31-8.92 7.56-5.93 12.46-16.98 6.95-27.63zm-257.76-18.45c-2.93-1.25-5.35-.11-6.91 3.11-5.79 11.94-12.33 23.43-20.65 33.84-1.21 1.23-2.37 2.52-3.64 3.69-5.95 5.48-9.35 6.49-16.02.28-3.33-3.1-6.03-6.73-8.66-10.4-3.95-5.5-7.2-11.44-10.7-17.23v-.01c-1.06-2.35-2.18-4.67-3.58-6.84-.6-1.36-1.11-2.76-1.82-4.06-2.14-3.9-6.71-3.88-9.12-.01-1.42 1.7-1.03 3.5-.21 5.26 5.68 12.21 12.61 23.66 21.21 34.04 5.15 6.22 10.77 11.93 18.92 14.22h4.08c9.22-3.02 15.28-9.89 20.98-17.2 1.69-2.3 3.43-4.55 5.05-6.9 5.29-7.7 9.97-15.77 13.86-24.27 1.44-3.15.19-6.25-2.79-7.52zm-93.83-.43c-3.19.01-5.01 1.98-5.01 5.64-.01 15.02.01 30.03.05 45.05.01 3.11 2.23 5.23 5.29 5.21 2.94-.02 4.78-1.92 4.79-5.1.03-7.55.01-15.09.01-22.64h.05c0-7.54.06-15.09-.03-22.63-.05-3.67-1.92-5.54-5.15-5.53zm113.94 5.86c-.01-3.27-1.45-5.34-3.94-5.81-3.69-.69-6.43 1.58-6.44 5.58-.04 14.96-.01 29.91.04 44.87.01 3.34 2.23 5.47 5.35 5.44 3.18-.04 5-2.08 5.01-5.65.01-7.33 0-14.65 0-21.98h-.01c-.01-7.49.01-14.97-.01-22.45zm77.09 39.93c-1.29-.32-2.56-.16-3.81.16-11.57 3.01-23.14 2.81-34.67-.13-6.95-1.77-13.07-5-17.53-10.84-.43-.56-1.19-1.2-.81-1.92.33-.63 1.25-.28 1.9-.28 8.53-.01 17.06.01 25.6 0 2.77 0 4.18-1.4 4.27-4.15.09-2.56-1.42-4.22-4.07-4.39-1.2-.08-2.42-.04-3.62-.04-7.55 0-15.1-.04-22.65.02-1.88.01-2.43-.48-1.66-2.35.97-2.35 2.57-4.23 4.11-6.18l.03-.01c3.42-2.79 7.21-4.83 11.49-6.03 9.49-2.64 19.09-2.4 28.73-1.22 1.46.18 2.86.19 4.22-.37 2.57-1.06 3.03-4.05.91-5.84-.88-.75-1.92-1.15-3.08-1.3-11.23-1.46-22.42-1.47-33.52 1.07-5.24 1.2-10.29 2.88-14.64 6.19l-.15.1c-4.92 3.08-8.2 7.38-9.71 13l.01.01c-1.29 3.29-1.75 6.65-.77 10.12 1.31 6.28 4.77 11.12 9.83 14.95 8.25 6.26 18.05 8.21 27.91 9.38 6.7.8 13.58.65 20.35-.3 3.86-.54 7.79-.83 11.36-2.65.46-.24.95-.43 1.37-.73 1.26-.9 1.93-2.12 1.67-3.68-.31-1.66-1.6-2.23-3.07-2.59zm-206.07-45.46c-2.69-1.13-5.21-.05-6.7 2.89-.41.81-.72 1.66-1.13 2.46-5.83 11.77-12.44 23.05-20.88 33.18-.38.36-.78.7-1.14 1.08-6.95 7.43-11.75 7.38-18.67-.04-4.71-5.05-8.52-10.73-12.16-16.54-4.09-6.52-7.61-13.34-10.97-20.25-1.42-2.91-4.1-3.89-6.76-2.72-2.78 1.23-4 3.94-3.05 6.92.3.93.74 1.81 1.17 2.69 3.45 7.13 7.3 14.05 11.82 20.56 7.21 10.38 14.33 20.9 26.86 25.75h4.08c5.9-1.55 10.66-4.86 14.64-9.39.55-.51 1.13-.98 1.64-1.53 8.25-8.91 14.66-19.08 20.41-29.71 1.47-2.71 2.89-5.47 4.02-8.34 1.19-2.95-.25-5.78-3.18-7.01z" fill="#e30613"/><path d="m419.42 317.54c4.84 0 9.68.12 14.51-.03 5.69-.18 9.43 4.69 9.32 9.46-.15 6.49-.04 12.99-.03 19.49 0 5.01-3.66 9.12-8.67 9.19-10.2.14-20.4.12-30.6.01-4.66-.05-8.51-4.49-8.5-9.47.01-6.34.27-12.69.07-19.03-.19-5.76 4.54-9.92 9.85-9.65 4.67.24 9.37.05 14.05.05zm-.24 36.73v.03c4.98 0 9.97.03 14.95-.01 4.23-.03 7.59-3.36 7.63-7.59.06-6.64-.05-13.29.09-19.93.09-4.32-3.2-7.89-7.8-7.92-10.04-.06-20.09-.02-30.13.09-3.57.04-6.86 3.45-6.89 7.02-.07 7.02-.06 14.04 0 21.06.03 3.87 3.51 7.22 7.43 7.25 4.9.03 9.81 0 14.72 0zm-132.45 1.44c-4.68 0-9.37-.09-14.05.02-5.88.14-10.38-4.28-10.08-9.96.34-6.4.03-12.83.14-19.25.09-5.41 3.56-8.89 8.97-8.93 9.97-.08 19.94-.07 29.92-.02 4.52.02 8.62 3.95 8.7 8.47.12 7.02.11 14.05-.01 21.07-.08 4.74-4.12 8.5-9.07 8.58-4.85.08-9.68.02-14.52.02zm-.09-1.44v-.07c4.98 0 9.96.1 14.94-.03 4.36-.12 7.31-3.2 7.34-7.5.04-6.56-.2-13.14.06-19.69.16-4.16-2.76-8.2-7.95-8.26-9.96-.12-19.92-.01-29.87.23-4.26.1-7.02 3.22-7.08 7.55-.09 6.56-.12 13.13-.05 19.69.05 4.87 3.26 8.01 8.12 8.07 4.82.06 9.65.01 14.49.01zm83.52 14.79c-.04-2.45 1.59-4.24 3.92-4.28 2.27-.05 4.15 1.76 4.22 4.07.07 2.3-1.72 4.23-3.99 4.28-2.35.05-4.11-1.68-4.15-4.07z"/><path d="m419.18 354.27c-4.91 0-9.82.03-14.73-.01-3.92-.03-7.4-3.37-7.43-7.25-.06-7.02-.07-14.04 0-21.06.03-3.57 3.33-6.98 6.89-7.02 10.04-.11 20.09-.15 30.13-.09 4.61.03 7.89 3.6 7.8 7.92-.13 6.64-.03 13.28-.09 19.93-.04 4.23-3.39 7.56-7.63 7.59-4.98.04-9.97.01-14.95.01.01 0 .01-.01.01-.02zm-2.32-31.08c-3.14-.44-6.3-.32-9.45-.17-2.81.14-5.59 2.39-5.73 5.13-.21 4.03-.49 8.09.23 12.12-.44 1.69-.21 3.42.09 5.06.49 2.69 2.73 4.47 5.41 4.6 8.22.4 16.44.02 24.66-.06 1.95-.02 3.5-.84 4.49-2.54 1.31-2.24 1.5-4.63.85-7.12.53-.79.6-1.65.56-2.58-.11-2.78-.35-5.57-.17-8.33.23-3.48-2.73-6.05-5.02-6.31-3.32-.37-6.72-.53-10.05.25-1.96-.56-3.92-.32-5.87-.05zm-130.22 31.08c-4.83 0-9.66.04-14.49-.01-4.86-.06-8.07-3.2-8.12-8.07-.07-6.56-.04-13.13.05-19.69.06-4.33 2.82-7.45 7.08-7.55 9.95-.24 19.92-.35 29.87-.23 5.19.06 8.11 4.1 7.95 8.26-.25 6.55-.02 13.13-.06 19.69-.03 4.3-2.97 7.39-7.34 7.5-4.98.13-9.96.03-14.94.03zm3.22-30.94c-1.96-.52-3.93-.6-5.91-.07-3.3-.57-6.63-.53-9.92-.15-3.16.36-5.14 2.88-5.23 6.14-.08 2.87-.06 5.74-.13 8.61-.02.86.11 1.65.58 2.37-.76 1.28-.19 2.64-.2 3.95-.01 3.47 2.12 5.65 5.62 5.69 7.83.1 15.67-.06 23.5.18 5.4.16 7.81-5.83 6.27-9.84.78-4.17.64-8.36.18-12.53-.26-2.4-2.06-4.08-4.28-4.45-3.44-.57-6.99-.61-10.48.1z" fill="#2581c4"/><path d="m437.4 340.21c.64 2.48.46 4.88-.85 7.12-1 1.71-2.54 2.53-4.49 2.54-8.22.08-16.44.46-24.66.06-2.69-.13-4.92-1.91-5.41-4.6-.3-1.63-.53-3.37-.09-5.06 3.61-.35 6.69-1.81 9.09-4.53 3.17-3.6 4.86-7.92 5.87-12.55 1.96-.27 3.92-.51 5.87.04.39 2 1.05 3.92 1.89 5.77 2.58 5.63 6.17 10.15 12.78 11.21z"/><path d="m437.4 340.21c-6.62-1.05-10.21-5.57-12.79-11.21-.84-1.84-1.5-3.77-1.89-5.77 3.33-.78 6.73-.62 10.05-.24 2.29.26 5.26 2.83 5.02 6.31-.19 2.76.06 5.55.17 8.33.04.92-.03 1.79-.56 2.58zm-20.54-17.02c-1 4.63-2.7 8.95-5.87 12.55-2.39 2.72-5.48 4.18-9.09 4.53-.72-4.03-.44-8.09-.23-12.12.14-2.74 2.92-5 5.73-5.13 3.15-.15 6.31-.27 9.46.17z" fill="#f7a600"/><path d="m283.95 323.26c1.98-.53 3.94-.45 5.91.07.35 1.23.62 2.49 1.08 3.68 2.51 6.43 6.05 11.82 13.51 13.21 1.54 4.01-.86 10-6.27 9.84-7.83-.24-15.67-.08-23.5-.18-3.49-.04-5.63-2.23-5.62-5.69 0-1.31-.56-2.68.2-3.95 3.78-.38 6.83-2.09 9.26-5 2.92-3.5 4.49-7.6 5.43-11.98z"/><path d="m283.95 323.26c-.95 4.38-2.51 8.48-5.43 11.97-2.43 2.9-5.48 4.62-9.26 5-.47-.72-.6-1.51-.58-2.37.07-2.87.05-5.74.13-8.61.09-3.26 2.07-5.78 5.23-6.14 3.28-.38 6.61-.42 9.91.15zm20.49 16.96c-7.45-1.39-11-6.78-13.51-13.21-.46-1.19-.72-2.45-1.08-3.68 3.49-.71 7.04-.67 10.49-.09 2.22.37 4.01 2.06 4.28 4.45.46 4.16.61 8.36-.18 12.53z" fill="#f7a600"/></svg>